<svg width="30" height="60" viewBox="0 0 30 60" fill="none" xmlns="http://www.w3.org/2000/svg">
<path d="M30 0H0V60H30V0Z" fill="#154273"/>
<path d="M15.54 46.4175H15.015V44.97H15.54V46.4175ZM17.895 40.035H17.37V38.5875H17.895V40.035ZM8.22747 37.5375C8.18247 37.5375 7.91247 37.5375 7.91247 37.59C7.91247 37.6425 8.03997 37.62 8.22747 37.65C8.64747 37.725 8.81247 37.935 9.10497 37.935C9.36747 37.935 9.64497 37.755 9.53997 37.3725C9.52497 37.305 9.48747 37.3275 9.47247 37.3725C9.42747 37.545 9.21747 37.6425 8.99997 37.6425C8.72247 37.6425 8.66997 37.545 8.23497 37.545L8.22747 37.5375ZM5.35497 38.985C5.39997 39.0525 5.89497 39.69 5.13747 39.93C5.09997 39.945 5.09247 39.975 5.13747 39.9975C5.69247 40.23 5.96247 39.8025 5.96247 39.8025C6.24747 40.4475 5.81247 40.8075 5.81247 40.8075C5.87247 40.92 6.14247 41.1225 6.54747 41.2125C6.70497 41.13 6.92247 40.9725 7.01247 40.7325C7.01247 40.7325 7.11747 41.0175 7.02747 41.2875C8.16747 41.3925 8.57247 40.4775 9.44997 40.6425C9.47247 40.6425 9.48747 40.6275 9.48747 40.605C9.48747 40.0425 9.14247 39.015 8.05497 38.805C6.96747 38.595 7.25997 38.1525 7.25997 38.1525C7.71747 38.1375 7.97997 38.3325 7.97997 38.3325C8.06247 38.1975 7.94247 38.0475 7.94247 38.0475C7.98747 37.995 8.00997 37.8075 8.00997 37.8075C7.49247 37.8075 7.36497 37.695 7.36497 37.695C7.28997 37.3875 7.49997 36.96 8.26497 37.4175C8.45997 37.2525 8.43747 36.9825 8.43747 36.9825C8.49747 36.9525 8.53497 36.8625 8.53497 36.825C8.53497 36.6975 7.91997 36.36 7.76997 36.315C7.73247 36.1275 7.49247 35.865 6.77247 35.9625C6.42747 36.0075 6.18747 35.9175 6.29997 35.715C6.31497 35.6775 6.25497 35.67 6.22497 35.715C6.14997 35.79 6.03747 36.015 6.32997 36.165C6.65997 36.33 6.67497 36.66 6.68247 36.7125C6.68247 36.7875 6.60747 36.7875 6.58497 36.7125C6.43497 36.1575 5.66997 36.0375 5.21997 36.33C5.24247 36.63 5.56497 36.825 5.74497 36.825C5.84997 36.825 5.98497 36.72 5.98497 36.585C5.98497 36.5175 6.02247 36.525 6.03747 36.585C6.11247 36.78 5.81247 37.2 5.38497 36.945C4.94247 37.3875 5.12247 37.9425 5.15997 38.1375C5.23497 38.4975 5.06247 38.85 4.73247 38.6925C4.71747 38.6925 4.69497 38.6775 4.69497 38.715C4.69497 38.9325 4.99497 39.1875 5.34747 38.9925L5.35497 38.985ZM7.79997 36.7425C7.58997 36.975 7.25247 36.9225 7.16997 36.54C7.60497 36.5175 7.78497 36.555 7.79997 36.7425ZM21.045 37.635C20.82 37.635 20.61 37.5375 20.5725 37.365C20.5575 37.32 20.5275 37.305 20.505 37.365C20.4 37.7475 20.67 37.9275 20.94 37.9275C21.2325 37.9275 21.3975 37.7175 21.8175 37.6425C22.005 37.6125 22.1325 37.6425 22.1325 37.5825C22.1325 37.53 21.8625 37.53 21.8175 37.53C21.3825 37.53 21.3225 37.6275 21.0525 37.6275L21.045 37.635ZM25.335 38.6925C25.335 38.6925 25.32 38.6625 25.2975 38.67C24.9675 38.835 24.795 38.4825 24.87 38.115C24.915 37.9125 25.095 37.365 24.645 36.9225C24.21 37.1775 23.91 36.7575 23.9925 36.5625C24.0075 36.51 24.045 36.5025 24.045 36.5625C24.045 36.6975 24.18 36.8025 24.285 36.8025C24.4575 36.8025 24.78 36.6075 24.81 36.3075C24.36 36.015 23.595 36.135 23.445 36.69C23.43 36.765 23.34 36.7575 23.3475 36.69C23.3475 36.645 23.37 36.315 23.7 36.1425C24 35.9925 23.895 35.7675 23.805 35.6925C23.775 35.6625 23.7075 35.67 23.73 35.6925C23.8425 35.8875 23.595 35.9775 23.265 35.94C22.545 35.8425 22.3125 36.1125 22.2675 36.2925C22.11 36.3375 21.5025 36.675 21.5025 36.8025C21.5025 36.84 21.54 36.9375 21.6 36.96C21.6 36.96 21.585 37.215 21.7725 37.395C22.5375 36.93 22.7475 37.365 22.6725 37.6725C22.6725 37.6725 22.5375 37.7775 22.02 37.785C22.02 37.785 22.0425 37.9725 22.0875 38.025C22.0875 38.025 21.9675 38.175 22.05 38.31C22.05 38.31 22.3125 38.115 22.77 38.13C22.77 38.13 23.0625 38.5725 21.975 38.7825C20.8875 38.9925 20.5425 40.02 20.5425 40.5825C20.5425 40.6125 20.5575 40.6275 20.58 40.62C21.465 40.455 21.8625 41.37 23.0025 41.265C22.8975 40.995 23.0175 40.71 23.0175 40.71C23.1075 40.95 23.325 41.115 23.4825 41.19C23.8875 41.1 24.1575 40.905 24.2175 40.785C24.2175 40.785 23.7825 40.4325 24.0675 39.78C24.0675 39.78 24.3375 40.215 24.8925 39.975C24.9375 39.9525 24.93 39.9225 24.8925 39.9075C24.135 39.66 24.63 39.0225 24.675 38.9625C25.0275 39.1725 25.3275 38.9175 25.3275 38.685L25.335 38.6925ZM22.8675 36.54C22.785 36.9225 22.4475 36.975 22.2375 36.7425C22.2525 36.555 22.44 36.5175 22.8675 36.54ZM14.82 30.1275C14.82 30.225 14.865 30.3075 14.895 30.3525C14.9625 30.45 14.9475 30.5025 14.9175 30.5325C14.8875 30.5625 14.835 30.5775 14.7375 30.51C14.6925 30.4725 14.6025 30.435 14.5125 30.435C14.3475 30.435 14.265 30.54 14.265 30.63C14.265 30.72 14.3475 30.825 14.5125 30.825C14.61 30.825 14.6925 30.78 14.7375 30.75C14.835 30.6825 14.8875 30.6975 14.9175 30.7275C14.9475 30.7575 14.9025 31.0875 14.865 31.35C14.595 31.41 14.46 31.6275 14.46 31.755C14.46 32.085 14.805 32.2725 15.015 32.385C15.2175 32.28 15.57 32.085 15.57 31.755C15.57 31.6275 15.435 31.41 15.165 31.35C15.1275 31.095 15.0825 30.7575 15.1125 30.7275C15.1425 30.6975 15.195 30.6825 15.2925 30.75C15.3375 30.7875 15.4275 30.825 15.5175 30.825C15.6825 30.825 15.765 30.72 15.765 30.63C15.765 30.54 15.6825 30.435 15.5175 30.435C15.42 30.435 15.3375 30.48 15.2925 30.51C15.195 30.5775 15.1425 30.5625 15.1125 30.5325C15.0825 30.5025 15.0675 30.45 15.135 30.3525C15.1725 30.3075 15.21 30.2175 15.21 30.1275C15.21 29.9625 15.105 29.88 15.015 29.88C14.925 29.88 14.82 29.9625 14.82 30.1275ZM15.015 32.565C14.79 32.565 14.61 32.745 14.61 32.97C14.61 33.195 14.79 33.375 15.015 33.375C15.24 33.375 15.42 33.195 15.42 32.97C15.42 32.745 15.24 32.565 15.015 32.565ZM15.015 36.405C16.62 36.405 17.52 36.7125 17.52 36.7125C17.52 35.9025 17.52 35.4525 17.985 35.52C17.73 34.845 18.825 34.575 18.825 33.69C18.825 33.105 18.4125 33.045 18.2925 33.045C17.9325 33.045 17.985 33.2775 17.6775 33.2775C17.64 33.2775 17.6025 33.2625 17.6025 33.2925C17.6025 33.3975 17.685 33.57 17.8275 33.57C18.0225 33.57 18.0225 33.375 18.165 33.375C18.225 33.375 18.315 33.42 18.315 33.6225C18.315 33.9975 18.0675 34.4175 17.775 34.74C17.7075 34.65 17.6175 34.59 17.505 34.59C17.3325 34.59 17.1825 34.77 17.1825 34.995C17.1825 35.0775 17.1975 35.1375 17.2275 35.205C17.13 35.2575 17.04 35.2875 16.98 35.2875C16.845 35.2875 16.65 35.235 16.65 34.9425C16.65 34.2975 17.505 33.735 17.505 32.9175C17.505 32.5275 17.25 32.145 16.7025 32.145C16.1175 32.145 16.23 32.67 15.7275 32.67C15.705 32.67 15.6825 32.67 15.6825 32.7C15.6825 32.7375 15.7725 33.03 16.0275 33.03C16.305 33.03 16.38 32.55 16.635 32.55C16.725 32.55 16.86 32.6025 16.86 32.925C16.86 33.18 16.7325 33.5925 16.5525 33.9825C16.485 33.915 16.395 33.87 16.2975 33.87C16.08 33.87 15.9225 34.08 15.9225 34.3275C15.9225 34.485 15.9825 34.6425 16.0875 34.7325C15.96 34.8975 15.8325 35.025 15.6525 35.025C15.3075 35.025 15.1575 34.83 15.1575 34.6125C15.1575 34.38 15.585 34.2975 15.585 33.9375C15.585 33.69 15.42 33.555 15.27 33.555C15.105 33.555 15.015 33.66 15 33.66C14.985 33.66 14.895 33.555 14.73 33.555C14.5725 33.555 14.415 33.69 14.415 33.9375C14.415 34.2975 14.8425 34.3875 14.8425 34.6125C14.8425 34.83 14.685 35.025 14.3475 35.025C14.175 35.025 14.04 34.89 13.9125 34.7325C14.0175 34.6275 14.0775 34.4775 14.0775 34.3275C14.0775 34.0725 13.92 33.87 13.7025 33.87C13.5975 33.87 13.515 33.915 13.4475 33.9825C13.2675 33.585 13.14 33.18 13.14 32.925C13.14 32.6025 13.275 32.55 13.365 32.55C13.6125 32.55 13.6875 33.03 13.9725 33.03C14.2275 33.03 14.3175 32.7375 14.3175 32.7C14.3175 32.685 14.3025 32.67 14.2725 32.67C13.77 32.67 13.875 32.145 13.2975 32.145C12.7575 32.145 12.495 32.5275 12.495 32.9175C12.495 33.735 13.35 34.2975 13.35 34.9425C13.35 35.2275 13.155 35.2875 13.02 35.2875C12.9525 35.2875 12.87 35.2575 12.7725 35.205C12.8025 35.13 12.8175 35.0775 12.8175 34.995C12.8175 34.77 12.6675 34.59 12.495 34.59C12.39 34.59 12.3 34.65 12.2325 34.74C11.94 34.4175 11.6925 34.005 11.6925 33.6225C11.6925 33.4275 11.7825 33.375 11.8425 33.375C11.9775 33.375 11.985 33.57 12.18 33.57C12.3225 33.57 12.405 33.3975 12.405 33.2925C12.405 33.2625 12.36 33.2775 12.33 33.2775C12.0225 33.2775 12.075 33.045 11.715 33.045C11.595 33.045 11.1825 33.1125 11.1825 33.69C11.1825 34.575 12.2775 34.845 12.0225 35.52C12.4875 35.4525 12.48 35.9025 12.4875 36.7125C12.4875 36.7125 13.38 36.405 14.985 36.405H15.015ZM12.0825 37.605C11.6475 37.7025 11.3325 37.7925 11.1975 37.83C11.1975 37.635 11.2725 37.455 11.4525 37.425C11.475 37.425 11.4825 37.3875 11.4525 37.38C11.0625 37.125 10.86 37.6125 10.8525 37.635C10.7175 37.62 10.5075 37.665 10.5075 37.8525C10.5075 38.4075 9.23247 38.715 8.93997 38.7675C9.46497 38.9625 9.67497 39.6225 9.67497 39.6225C10.05 39.2475 10.4925 38.9175 10.59 38.9175C10.6875 38.9175 10.725 39.045 10.7325 39.1125C10.7325 39.135 10.755 39.1425 10.7775 39.1275C10.9725 38.835 10.8825 38.7675 10.86 38.6775C10.845 38.61 10.86 38.355 11.1525 38.385V42.0975L11.0025 42.1275C10.935 42.1425 10.3875 41.6775 9.77247 41.2425C9.14997 40.8075 8.81997 41.07 8.10747 41.4525C7.17747 41.955 6.23997 41.4975 6.23997 41.4975C5.44497 42.0675 5.16747 43.725 5.16747 43.725C5.00247 43.7925 4.73997 43.86 4.49247 43.86C3.87747 43.86 3.77247 43.485 3.77247 43.275C3.77247 42.33 4.95747 41.9325 4.95747 41.0025C4.95747 40.7775 4.85247 39.8625 3.71997 39.8625H2.70747C2.27997 39.8625 2.18247 39.555 2.12247 39.4425C2.09997 39.3975 2.05497 39.4275 2.07747 39.4575C2.10747 39.5325 2.03247 39.6525 2.03247 39.8925C2.03247 40.2675 2.25747 40.5 2.66997 40.5C2.85747 40.5 3.03747 40.4475 3.08997 40.41C3.12747 40.3875 3.14997 40.425 3.13497 40.4475C2.95497 40.6575 2.93997 41.055 3.01497 41.145C3.02997 41.1675 3.05997 41.16 3.05997 41.145C3.16497 40.7475 3.53247 40.3725 4.03497 40.3725C4.64997 40.3725 4.64997 40.8975 4.64997 41.0175C4.64997 41.775 3.32247 42.3225 3.32247 43.3725C3.32247 44.4225 4.43997 44.6475 5.07747 44.49C5.03997 45.5475 3.83247 45.9075 3.79497 45.15C3.79497 45.1125 3.76497 45.105 3.74997 45.15C3.59997 45.525 3.65997 45.855 4.12497 45.9525C4.15497 45.9525 4.13997 45.975 4.10997 45.9975C3.64497 46.29 3.89247 47.4525 3.91497 47.7975C3.95247 48.2925 3.45747 48.2325 3.41997 48.2175C3.40497 48.2175 3.37497 48.2175 3.41997 48.2625C3.76497 48.69 4.19997 48.3 4.19997 48.3C4.52247 48.405 4.32747 48.675 4.10247 48.825C4.06497 48.8475 4.07247 48.87 4.10247 48.87C4.14747 48.87 4.65747 48.915 4.74747 48.5175C4.97247 48.78 5.30247 48.6825 5.36247 48.6525C5.45997 48.6075 5.93247 48.4275 5.97747 48.96C5.97747 48.9975 5.99997 48.975 6.02247 48.96C6.37497 48.51 5.99997 48.2325 5.78247 48.2025C5.79747 48.18 6.08247 47.94 6.33747 48.27C6.35247 48.2925 6.37497 48.3 6.37497 48.255C6.40497 47.685 5.93997 47.64 5.63997 47.88C5.62497 47.82 5.52747 47.505 5.97747 47.5125C5.99247 47.5125 6.00747 47.4975 5.99247 47.475C5.64747 47.1 5.35497 47.4375 5.28747 47.52C5.12997 47.7075 4.73997 47.625 4.70247 47.625C4.82247 45.6525 6.56247 46.35 6.80247 45.39C6.81747 45.345 6.83997 45.36 6.83997 45.375C6.90747 45.6075 7.49247 45.6375 7.60497 45.18C7.60497 45.15 7.60497 45.135 7.58997 45.15C7.08747 45.6525 5.95497 44.085 7.49997 42.8025C8.81997 41.715 10.005 42.3225 10.455 42.675C10.4775 42.8325 10.38 42.885 10.32 42.9C10.2975 42.9 10.29 42.9225 10.32 42.945C10.4475 42.99 10.62 42.975 10.7025 42.8625C10.9875 43.0575 10.7475 43.3125 10.6275 43.38C10.5975 43.395 10.6125 43.4175 10.6275 43.425C10.8825 43.47 11.1 43.2075 11.115 43.05L11.16 43.0725V44.1975C11.16 45.795 13.005 46.0125 15.0225 47.3625C17.0475 46.005 18.8775 45.7875 18.8775 44.1975V43.0725L18.9225 43.05C18.9375 43.2 19.1475 43.47 19.41 43.425C19.4325 43.425 19.4475 43.4025 19.41 43.38C19.2975 43.305 19.05 43.065 19.335 42.8625C19.4175 42.9825 19.59 42.9975 19.7175 42.945C19.755 42.93 19.7475 42.9075 19.7175 42.9C19.6575 42.885 19.56 42.825 19.5825 42.675C20.0325 42.315 21.2175 41.7075 22.5375 42.8025C24.0825 44.0775 22.95 45.645 22.4475 45.15C22.425 45.1275 22.425 45.15 22.4325 45.18C22.5375 45.645 23.13 45.6075 23.1975 45.375C23.1975 45.36 23.2275 45.3375 23.235 45.39C23.475 46.35 25.2075 45.645 25.335 47.625C25.2975 47.625 24.9075 47.7 24.75 47.52C24.6825 47.445 24.3975 47.1 24.045 47.475C24.0225 47.4975 24.045 47.5125 24.06 47.5125C24.51 47.4975 24.4125 47.82 24.3975 47.88C24.0975 47.6325 23.6325 47.685 23.6625 48.255C23.6625 48.3 23.6775 48.3 23.7 48.27C23.955 47.94 24.24 48.18 24.255 48.2025C24.045 48.2325 23.6625 48.51 24.015 48.96C24.03 48.975 24.0525 49.005 24.06 48.96C24.105 48.435 24.5775 48.6 24.675 48.6525C24.7425 48.69 25.0725 48.7875 25.29 48.5175C25.38 48.9225 25.8825 48.8775 25.935 48.87C25.9725 48.87 25.9725 48.8475 25.935 48.825C25.7175 48.6825 25.515 48.405 25.8375 48.3C25.8375 48.3 26.2725 48.69 26.6175 48.2625C26.6475 48.225 26.6325 48.2175 26.6175 48.2175C26.5725 48.2325 26.085 48.2925 26.1225 47.7975C26.145 47.4525 26.4 46.29 25.9275 45.9975C25.8975 45.9825 25.8825 45.96 25.9125 45.9525C26.3775 45.8475 26.4375 45.5175 26.2875 45.15C26.2725 45.105 26.2425 45.1125 26.2425 45.15C26.205 45.9075 24.9975 45.5475 24.96 44.49C25.605 44.655 26.715 44.43 26.715 43.3725C26.715 42.315 25.3875 41.775 25.3875 41.0175C25.3875 40.89 25.3875 40.3725 26.0025 40.3725C26.505 40.3725 26.88 40.7475 26.9775 41.145C26.9775 41.16 27 41.1675 27.0225 41.145C27.0975 41.0475 27.0825 40.6575 26.9025 40.4475C26.8875 40.4325 26.9025 40.3875 26.9475 40.41C27 40.4475 27.18 40.5 27.3675 40.5C27.78 40.5 28.005 40.275 28.005 39.8925C28.005 39.66 27.9225 39.54 27.96 39.4575C27.975 39.42 27.93 39.3975 27.915 39.4425C27.855 39.5625 27.75 39.8625 27.33 39.8625H26.3175C25.185 39.8625 25.08 40.7775 25.08 41.0025C25.08 41.9325 26.265 42.3375 26.265 43.275C26.265 43.5 26.1525 43.86 25.545 43.86C25.29 43.86 25.0275 43.785 24.87 43.725C24.87 43.725 24.6 42.075 23.7975 41.4975C23.7975 41.4975 22.86 41.955 21.93 41.4525C21.225 41.07 20.8875 40.8075 20.265 41.2425C19.6425 41.6775 19.1025 42.135 19.035 42.1275L18.885 42.0975V38.385C19.17 38.355 19.1925 38.61 19.1775 38.6775C19.1625 38.76 19.0725 38.835 19.26 39.1275C19.275 39.15 19.2975 39.1425 19.305 39.1125C19.305 39.0375 19.35 38.9175 19.4475 38.9175C19.545 38.9175 19.9875 39.2475 20.3625 39.6225C20.3625 39.6225 20.58 38.97 21.0975 38.7675C20.805 38.7225 19.53 38.415 19.53 37.8525C19.53 37.665 19.32 37.6275 19.185 37.635C19.185 37.62 18.9675 37.125 18.585 37.38C18.57 37.395 18.57 37.425 18.585 37.425C18.7575 37.47 18.8325 37.6425 18.84 37.83C18.465 37.7175 16.89 37.275 15.015 37.275C14.1 37.275 13.2675 37.38 12.6 37.5V38.7825H12.075V37.5975M8.62497 50.79C8.48997 50.7375 8.39997 50.6475 8.39997 50.46V49.665C8.17497 49.59 7.54497 49.35 6.29247 49.35C5.25747 49.35 4.92747 49.5825 4.91247 49.665L4.63497 51.18C4.63497 51.18 5.05497 50.7975 6.56247 50.895C8.37747 51.0075 10.2525 52.08 10.2525 50.94V50.265C8.83497 50.265 8.62497 50.73 8.62497 50.79ZM19.785 50.265V50.94C19.785 52.08 21.66 51.015 23.475 50.895C24.9825 50.7975 25.4025 51.18 25.4025 51.18L25.125 49.6575C25.11 49.575 24.78 49.3425 23.745 49.3425C22.5 49.3425 21.87 49.5825 21.6375 49.6575V50.4525C21.6375 50.6325 21.5475 50.7225 21.4125 50.7825C21.4125 50.715 21.21 50.2575 19.785 50.2575V50.265ZM15.015 49.575C17.94 49.575 20.9025 49.725 21.285 50.1675C21.315 50.205 21.33 50.1675 21.33 50.1375V48.5925C21.33 48.1425 18.27 47.88 15.015 47.88C11.76 47.88 8.69997 48.1425 8.69997 48.5925V50.1375C8.69997 50.1375 8.71497 50.1975 8.74497 50.1675C9.14997 49.7325 12.1125 49.575 15.03 49.575H15.015ZM12.4125 42.285L12.12 42.21L12.0975 42.2475L11.7525 42.0975H12.06C12.06 42.0975 12.09 42.0825 12.075 42.0675C11.94 41.9325 11.8125 41.8125 11.8125 41.8125C11.8125 41.8125 11.9475 41.865 12.15 41.94C12.1725 41.94 12.18 41.94 12.165 41.9175C12.0675 41.7825 11.94 41.5875 11.94 41.5875C11.94 41.5875 12.2175 41.775 12.27 41.8125C12.285 41.8275 12.3 41.8125 12.2925 41.7975C12.2175 41.6175 12.135 41.4075 12.135 41.4075L12.435 41.6925C12.435 41.6925 12.465 41.6925 12.4575 41.6775C12.4275 41.5425 12.375 41.2875 12.375 41.2875L12.6 41.61C12.6 41.61 12.63 41.625 12.63 41.61C12.63 41.5425 12.63 41.2575 12.63 41.2575C12.63 41.2575 12.7275 41.475 12.765 41.58C12.78 41.6025 12.7875 41.6025 12.8025 41.58C12.8175 41.5425 12.915 41.3025 12.915 41.3025L12.93 41.6775L12.885 41.6925L12.825 42.135C13.26 42.03 13.815 41.28 14.235 41.28C14.7375 41.28 14.9175 41.865 15.84 41.565C16.0725 41.91 16.155 42.21 16.245 42.63C16.605 42.9675 17.1 42.855 17.1 42.495C17.1 42.015 16.575 41.925 16.575 41.4225C16.575 41.1975 16.7325 40.875 17.16 40.875C17.385 40.875 17.715 40.9725 17.91 40.9725C18.135 40.9725 18.1875 40.8075 18.21 40.74C18.225 40.695 18.2925 40.7025 18.285 40.74C18.285 40.785 18.3075 40.8525 18.3075 40.965C18.3075 41.28 17.8425 41.325 17.79 41.28C17.7675 41.265 17.745 41.28 17.7675 41.3025C17.8425 41.355 17.82 41.55 17.7375 41.67C17.7225 41.685 17.715 41.685 17.715 41.67C17.67 41.445 17.4 41.16 17.16 41.16C17.0775 41.16 16.905 41.205 16.905 41.415C16.905 41.7 17.475 41.9625 17.475 42.5475C17.475 43.1325 16.8675 43.3125 16.26 43.155C16.275 43.74 17.145 44.0775 17.1675 43.665C17.1675 43.635 17.1825 43.65 17.19 43.665C17.3175 43.845 17.265 43.98 17.0925 44.0475C17.2425 44.115 17.2725 44.4225 17.3175 44.6025C17.385 44.88 17.67 44.7225 17.6925 44.715C17.7075 44.7 17.715 44.715 17.7075 44.73C17.6025 45.015 17.3025 44.9025 17.3025 44.9025C17.1525 45.0075 17.3325 45.105 17.4675 45.15C17.4825 45.15 17.4825 45.165 17.4675 45.18C17.3625 45.2175 17.1525 45.285 17.04 45.105C16.965 45.3 16.8 45.2925 16.74 45.2925C16.6275 45.2925 16.5525 45.405 16.575 45.5625C16.575 45.5775 16.575 45.5775 16.56 45.5775C16.2975 45.405 16.4475 45.195 16.56 45.1425C16.545 45.1275 16.3575 45.0525 16.275 45.27C16.275 45.285 16.26 45.285 16.2525 45.27C16.14 44.955 16.3875 44.865 16.5675 44.9475C16.5525 44.9025 16.4625 44.7525 16.2225 44.805C16.2075 44.805 16.2075 44.805 16.2075 44.79C16.2525 44.6925 16.365 44.5575 16.5825 44.6925C16.695 44.7675 16.89 44.6625 16.905 44.6475C16.515 43.875 15.765 44.52 15.5925 43.9125C15.5925 43.8975 15.5775 43.89 15.5625 43.9275C15.5175 44.055 15.1875 44.0625 15.1275 43.815C15.1275 43.8 15.1275 43.7925 15.1425 43.8C15.1875 43.845 15.2925 43.89 15.4275 43.695C15.5175 43.56 15.5325 43.3875 15.5325 43.275C15.5325 42.81 15.0675 42.015 14.3325 42.015C13.8675 42.015 13.3725 42.195 12.9975 42.465L13.3425 42.54C13.3125 42.885 12.975 43.095 12.6675 43.005L12.72 42.6075C12.6675 42.6225 12.5325 42.675 12.465 42.7725H12.45C12.39 42.5475 12.5775 42.4275 12.63 42.405C12.465 42.405 12.375 42.5175 12.345 42.5625H12.33C12.345 42.5175 12.315 42.3975 12.3975 42.315L12.4125 42.285ZM13.44 44.97C13.305 45.135 13.1925 44.97 13.02 44.97C12.855 44.97 12.825 45.105 12.825 45.165C12.825 45.18 12.825 45.18 12.81 45.165C12.6225 44.91 12.8325 44.775 12.9525 44.76C12.9375 44.745 12.7575 44.625 12.6375 44.79C12.6375 44.805 12.6225 44.79 12.6225 44.79C12.6225 44.475 12.8625 44.4525 13.0275 44.595C13.0575 44.475 12.9825 44.4 12.8475 44.3925C12.8325 44.3925 12.8325 44.3775 12.8325 44.3775C12.885 44.3175 12.9375 44.295 12.9975 44.295C13.17 44.295 13.1925 44.52 13.3125 44.52C13.4775 44.52 13.725 44.295 13.7475 44.265C13.7475 44.25 13.5825 43.8075 13.6125 43.545C13.6125 43.53 13.6125 43.53 13.5975 43.545C13.515 43.59 13.3125 43.59 13.3125 43.335C13.3125 43.32 13.3125 43.3125 13.3275 43.335C13.4175 43.4625 13.5675 43.32 13.6425 43.23C13.7175 43.14 14.1525 42.5175 14.7225 42.5175C14.85 42.5175 15.0075 42.5925 15.1425 42.6825C14.9475 42.9225 15.1425 43.1475 15.285 43.1175C15.3 43.1175 15.3 43.1325 15.285 43.1325C14.5275 43.4175 14.19 43.53 14.19 44.1675C14.19 44.4975 14.3025 44.685 14.4975 44.6325C14.5125 44.6325 14.5125 44.6325 14.4975 44.6475C14.4225 44.73 14.3475 44.76 14.28 44.76C14.1225 44.76 14.0925 44.6775 14.01 44.6775C13.9275 44.6775 13.6425 44.8425 13.6425 44.985C13.6425 45.0375 13.68 45.1125 13.7775 45.1725V45.1875C13.695 45.1875 13.47 45.2025 13.425 44.9925L13.44 44.97ZM15.4275 38.82C15.195 38.805 15.0375 38.8575 15.0525 38.9325C15.165 39.0525 15.315 39.0375 15.4275 38.82ZM14.5575 39.405C14.7225 39.36 14.9025 39.3825 14.9325 39.39C14.9625 39.3975 14.955 39.435 14.9325 39.4425C14.5875 39.4875 14.565 39.645 14.3475 39.645C14.205 39.645 14.04 39.495 14.1 39.2775C14.1 39.2475 14.13 39.2475 14.1375 39.2775C14.16 39.375 14.3025 39.4725 14.5725 39.405H14.5575ZM10.035 47.115C10.26 47.4075 10.485 47.13 10.7925 47.13C10.9425 47.13 11.1225 47.175 11.1525 47.475C11.1525 47.49 11.1675 47.49 11.1825 47.475C11.5125 47.025 11.1375 46.77 10.92 46.74C10.965 46.695 11.2875 46.5 11.4975 46.7925C11.5125 46.8075 11.535 46.8075 11.535 46.7775C11.535 46.2075 11.1075 46.1625 10.8 46.41C10.74 46.185 10.905 46.0425 11.1225 46.0425C11.145 46.0425 11.16 46.0275 11.145 46.0125C10.7625 45.6075 10.4775 46.1175 10.41 46.2C10.26 46.4025 9.71247 46.02 9.49497 45.795C9.49497 45.795 9.97497 45.2925 9.97497 44.8275C9.97497 44.7975 9.97497 44.76 9.97497 44.745C9.97497 44.73 9.97497 44.73 9.98997 44.73C10.035 44.76 10.1025 44.775 10.17 44.775C10.275 44.775 10.485 44.7375 10.485 44.3475C10.485 44.3175 10.47 44.3175 10.4625 44.3325C10.4025 44.415 10.3425 44.4375 10.2975 44.4375C9.90747 44.4375 9.09747 43.14 8.13747 43.14C7.88247 43.14 7.40997 43.32 7.17747 43.575C7.28997 43.6425 7.31247 43.785 7.30497 43.89C7.28997 44.055 7.15497 44.1375 7.01997 44.175C6.99747 44.175 6.99747 44.1975 7.01997 44.2125C7.50747 44.4 8.38497 44.73 8.58747 44.9025C8.81997 45.105 8.78247 45.4875 8.63997 46.0275C8.50497 46.5375 8.22747 46.47 8.11497 46.455C8.09997 46.455 8.09997 46.455 8.09997 46.47C8.22747 46.6275 8.37747 46.68 8.50497 46.68C8.75997 46.68 8.84997 46.5225 8.97747 46.5225C9.19497 46.5225 9.65247 46.8375 9.65247 47.0775C9.65247 47.2125 9.54747 47.3325 9.41247 47.4225V47.4375C9.51747 47.4525 9.93747 47.49 10.0275 47.1075L10.035 47.115ZM20.6175 47.445C20.6175 47.445 20.6325 47.43 20.6175 47.43C20.4825 47.34 20.3775 47.22 20.3775 47.085C20.3775 46.845 20.835 46.53 21.0525 46.53C21.1875 46.53 21.2775 46.6875 21.525 46.6875C21.66 46.6875 21.81 46.635 21.93 46.4775C21.945 46.4625 21.93 46.455 21.915 46.4625C21.81 46.4775 21.525 46.545 21.39 46.035C21.255 45.5025 21.2025 45.12 21.4425 44.91C21.6375 44.7375 22.5225 44.4075 23.01 44.22C23.0325 44.205 23.0325 44.19 23.01 44.1825C22.875 44.145 22.7475 44.0625 22.725 43.8975C22.71 43.7925 22.74 43.6575 22.8525 43.5825C22.6125 43.3275 22.14 43.1475 21.885 43.1475C20.925 43.1475 20.115 44.445 19.725 44.445C19.68 44.445 19.6125 44.43 19.56 44.34C19.545 44.325 19.5375 44.325 19.5375 44.355C19.5375 44.745 19.7475 44.7825 19.8525 44.7825C19.9125 44.7825 19.9875 44.7675 20.0325 44.7375C20.0475 44.7375 20.0475 44.7375 20.0475 44.7525C20.0475 44.7675 20.0475 44.805 20.0475 44.835C20.0475 45.3 20.5275 45.8025 20.5275 45.8025C20.31 46.0275 19.7625 46.41 19.6125 46.2075C19.545 46.125 19.2675 45.615 18.8775 46.02C18.8625 46.035 18.8775 46.05 18.9 46.05C19.1175 46.05 19.2825 46.1925 19.2225 46.4175C18.9075 46.17 18.4875 46.215 18.4875 46.785C18.4875 46.8075 18.51 46.815 18.525 46.8C18.7275 46.5075 19.05 46.7025 19.095 46.7475C18.8775 46.7775 18.51 47.0325 18.8325 47.4825C18.8475 47.4975 18.855 47.4975 18.8625 47.4825C18.9 47.19 19.08 47.1375 19.2225 47.1375C19.5225 47.1375 19.7475 47.415 19.98 47.1225C20.0775 47.505 20.505 47.4675 20.6025 47.4525L20.6175 47.445ZM12.87 39.9675C12.84 40.0125 12.735 39.9675 12.705 39.9525C12.7275 40.005 12.825 40.17 12.9675 40.17C13.035 40.17 13.1325 40.1325 13.155 40.0875C13.155 40.0875 13.7175 40.275 13.995 40.3425C13.89 40.485 13.8225 40.6575 13.8 40.845C13.575 40.71 12.675 40.23 12.675 40.23L12.3975 40.6125C12.3525 40.6725 12.1275 40.5075 12.1725 40.4475L12.3825 40.155C12.3075 40.08 12.1425 40.125 12.0975 40.14C12.0975 40.14 12.0825 40.14 12.0975 40.125C12.1275 40.065 12.2325 39.8925 12.495 39.9675C12.495 39.8025 12.255 39.8625 12.1875 39.8775C12.255 39.8025 12.45 39.6525 12.6675 39.78L12.765 39.645L12.57 39.4425L12.69 39.2775L12.825 39.4575L13.86 38.0325C13.86 38.0325 14.0925 37.935 14.1675 37.92C14.1675 37.995 14.1825 38.2125 14.1675 38.25L13.1475 39.6825L13.365 39.7575L13.245 39.9225L12.99 39.8025L12.885 39.96L12.87 39.9675ZM16.515 39.735C16.515 39.87 16.59 40.0575 16.77 39.9975H16.785C16.7625 40.14 16.5 40.275 16.38 40.1025C16.275 40.3275 16.305 40.5375 16.5225 40.6575C16.5375 40.6575 16.5375 40.68 16.5225 40.695C16.3875 40.7925 16.1775 40.77 16.08 40.5825C15.8925 40.7175 15.915 41.0175 16.035 41.1225C16.035 41.1225 15.5175 41.43 15.0525 41.2125C14.7375 41.0625 14.49 40.8675 14.085 40.905C14.1375 40.3425 14.4225 40.2 14.94 40.11C15.3525 40.0425 15.405 39.855 15.345 39.705C15.21 39.6675 14.9475 39.795 14.9475 39.795C14.9025 39.72 14.9625 39.6375 14.9625 39.6375C14.94 39.6075 14.925 39.5025 14.925 39.5025C15.21 39.5025 15.27 39.435 15.27 39.435C15.3225 39.135 15.015 39.105 14.7825 39.27C14.6775 39.1725 14.6925 39.045 14.6925 39.045C14.6625 39.03 14.64 38.9775 14.64 38.955C14.64 38.88 14.985 38.6925 15.075 38.67C15.0975 38.565 15.2175 38.43 15.585 38.4675C15.63 38.37 15.555 38.0175 15.51 37.9275C15.495 37.8975 15.51 37.8825 15.5475 37.905C15.675 37.98 15.8025 38.28 15.8925 38.2875C15.8925 38.2875 16.2975 38.07 16.32 38.085C16.335 38.1 16.395 38.55 16.395 38.55C16.4475 38.6175 16.77 38.55 16.905 38.61C16.9425 38.625 16.9425 38.655 16.905 38.655C16.8 38.67 16.47 38.82 16.4175 38.91C16.6125 39.195 16.5225 39.6075 16.5225 39.72L16.515 39.735Z" fill="white"/>
</svg>
